<svg width="45" height="45" viewBox="0 0 45 45" fill="none" xmlns="http://www.w3.org/2000/svg">
<path d="M34.5964 19.3846C34.1441 19.3846 33.7103 19.205 33.3905 18.8851C33.0707 18.5653 32.891 18.1315 32.891 17.6792C32.891 16.8597 32.0715 15.1542 30.6983 13.6702C29.3472 12.2306 27.8632 11.3889 26.6229 11.3889C26.1706 11.3889 25.7368 11.2092 25.4169 10.8894C25.0971 10.5696 24.9174 10.1358 24.9174 9.68346C24.9174 8.75321 25.6926 7.978 26.6229 7.978C28.8378 7.978 31.1634 9.17404 33.2011 11.3225C35.1059 13.338 36.3241 15.8408 36.3241 17.657C36.3241 18.6094 35.5488 19.3846 34.5964 19.3846ZM42.5922 19.3802C42.1398 19.3802 41.7061 19.2005 41.3862 18.8807C41.0664 18.5609 40.8867 18.1271 40.8867 17.6747C40.8867 9.81192 34.4857 3.43307 26.645 3.43307C26.1927 3.43307 25.7589 3.25338 25.4391 2.93355C25.1192 2.61371 24.9396 2.17992 24.9396 1.72761C24.9396 0.797357 25.6926 0 26.6229 0C36.3683 0 44.2976 7.92927 44.2976 17.6747C44.2976 18.605 43.5224 19.3802 42.5922 19.3802ZM20.0447 28.6827L15.9471 32.7802C15.0833 33.644 13.7101 33.644 12.8242 32.8024C12.5805 32.5588 12.3369 32.3373 12.0933 32.0936C9.85349 29.8389 7.78774 27.4178 5.91373 24.851C4.09753 22.326 2.63571 19.801 1.57257 17.2982C0.531572 14.7733 0 12.359 0 10.0556C0 8.54944 0.265785 7.10977 0.797357 5.78084C1.32893 4.42976 2.17058 3.18943 3.34447 2.08199C4.76199 0.686613 6.31241 0 7.95142 0C8.57159 0 9.19176 0.132893 9.74548 0.398679C10.3213 0.664464 10.8308 1.06314 11.2294 1.63901L16.368 8.88167C16.7667 9.43539 17.0546 9.94482 17.2539 10.4321C17.4533 10.8972 17.564 11.3623 17.564 11.7832C17.564 12.3147 17.409 12.8463 17.0989 13.3557C16.8109 13.8652 16.3901 14.3967 15.8585 14.9283L14.1752 16.6781C13.9316 16.9217 13.8209 17.2096 13.8209 17.564C13.8209 17.7412 13.843 17.8962 13.8873 18.0734C13.9538 18.2506 14.0202 18.3835 14.0645 18.5164C14.4632 19.2473 15.1498 20.1997 16.1243 21.3515C17.121 22.5032 18.1842 23.6771 19.3359 24.851C19.5574 25.0725 19.801 25.2939 20.0225 25.5154C20.9085 26.3792 20.9306 27.7968 20.0447 28.6827ZM44.2312 36.169C44.2282 37.0049 44.0391 37.8296 43.6775 38.5832C43.3009 39.3806 42.8137 40.1336 42.1713 40.8424C41.086 42.0384 39.89 42.9022 38.5389 43.456C38.5168 43.456 38.4946 43.4781 38.4725 43.4781C37.1657 44.0097 35.7482 44.2976 34.2199 44.2976C31.9607 44.2976 29.5465 43.766 26.9994 42.6808C24.4523 41.5955 21.9052 40.1336 19.3802 38.2953C18.5164 37.653 17.6526 37.0107 16.8331 36.3241L24.0758 29.0814C24.6959 29.5465 25.2496 29.9009 25.7148 30.1445C25.8255 30.1888 25.9584 30.2553 26.1134 30.3217C26.2906 30.3882 26.4678 30.4103 26.6672 30.4103C27.0437 30.4103 27.3316 30.2774 27.5753 30.0338L29.2586 28.3726C29.8123 27.8189 30.3439 27.3981 30.8533 27.1323C31.3627 26.8222 31.8721 26.6672 32.4259 26.6672C32.8467 26.6672 33.2897 26.7558 33.7769 26.9551C34.2642 27.1544 34.7736 27.4424 35.3274 27.8189L42.6586 33.0239C43.2345 33.4226 43.6332 33.8877 43.8768 34.4414C44.0983 34.9951 44.2312 35.5488 44.2312 36.169Z" fill="black"/>
</svg>
